<?xml version="1.0" encoding="iso-8859-1"?>
<!-- Generator: Adobe Illustrator 16.0.0, SVG Export Plug-In . SVG Version: 6.00 Build 0)  -->
<!DOCTYPE svg PUBLIC "-//W3C//DTD SVG 1.1//EN" "http://www.w3.org/Graphics/SVG/1.1/DTD/svg11.dtd">
<svg version="1.1" id="&#x56FE;&#x5C42;_1" xmlns="http://www.w3.org/2000/svg" xmlns:xlink="http://www.w3.org/1999/xlink" x="0px"
	 y="0px" width="5000px" height="1000px" viewBox="0 0 5000 1000" style="enable-background:new 0 0 5000 1000;"
	 xml:space="preserve">
<g>
	<g>
		<path style="fill:#009944;" d="M 4,752 
			c 237, 2, 474, 4, 711, 6 
			c 86, 1, 261, 38, 328, -25
			c 76, -71, 135, -162, 189, -249 
			c 105, -175, 117, 286, 174, 267 
			c 63, -21, 81, -226, 91, -281
			c 6, -33, 12, -66, 51, -74
			c 24, -5, 96, 234, 116, 273 
			c 52, 102, 293, 135, 393, 135
			c 189, -2, 378, -3, 566, -4 
			c 149, -1, 380, 41, 510, -51 
			c 52, -37, 64, -110, 124, -137 
			c 37, -17, 75, -10, 109, 9
			c 41, 23, 63, -4, 101, -22 
			c 146, -68, 193, 161, 329, 154 
			c 61, -3, 83, -61, 136, -77 
			c 73, -22, 154, 53, 204, 95
			c 102, 85, 304, 229, 443, 229 
			c -1526, 0, -3052, 0, -4578, 0 
			C 1, 917, 3, 835, 4, 752 z"/>
	</g>
</g>
</svg>
